# xmcd CD database file
#
# Track frame offsets:
#	150
#	13266
#	25130
#	36352
#	50701
#	62352
#	75104
#	86243
#	98572
#	111939
#	123004
#	134447
#	146670
#	159069
#	171844
#	184092
#	198923
#	210017
#	221687
#	236404
#	250153
#	261755
#	272350
#
# Disc length: 3815 seconds
#
# Revision: 0
# Processed by: cddbd v1.5.2PL0 Copyright (c) Steve Scherf et al.
# Submitted via: CDex 1.70beta2
#
DISCID=2d0ee517
DTITLE=Charlie Parker und Miles Davis - Blue Bird
DYEAR=1900
DGENRE=Jazz
TTITLE0=Ah-Leu-Cha (C. Parker)
TTITLE1=Another Hair-Do (C. Parker)
TTITLE2=Barbados (C. Parker)
TTITLE3=Billie's Bounce (C. Parker)
TTITLE4=Bird Gets the Worm (C. Parker)
TTITLE5=Blue Bird (C. Parker)
TTITLE6=Buzzy (C. Parker)
TTITLE7=Chasin' the Bird (C. Parker)
TTITLE8=Cheryl (C. Parker)
TTITLE9=Constellation (C. Parker)
TTITLE10=Donna Lee (C. Parker)
TTITLE11=Half Nelson (M. Davis)
TTITLE12=Klaunstance (C. Parker)
TTITLE13=Little Willie Leaps (M. Davis)
TTITLE14=Marmaduke (C. Parker)
TTITLE15=Meandering (M. Davis)
TTITLE16=Merry-Go-Round (C. Parker)
TTITLE17=Milestones (M. Davis)
TTITLE18=Now's the Time (C. Parker)
TTITLE19=Parker's Mood (C. Parker)
TTITLE20=Perhaps (C. Parker)
TTITLE21=Sippin' at Bells (M. Davis)
TTITLE22=Steeplechase (C. Parker)
EXTD=
EXTT0=
EXTT1=
EXTT2=
EXTT3=
EXTT4=
EXTT5=
EXTT6=
EXTT7=
EXTT8=
EXTT9=
EXTT10=
EXTT11=
EXTT12=
EXTT13=
EXTT14=
EXTT15=
EXTT16=
EXTT17=
EXTT18=
EXTT19=
EXTT20=
EXTT21=
EXTT22=
PLAYORDER=
